<svg width="512" height="512" viewBox="0 0 512 512" fill="none" xmlns="http://www.w3.org/2000/svg">
<path d="M480 352H346.5L301.25 397.25C289.2 409.3 273.1 416 256 416C238.9 416 222.84 409.344 210.75 397.25L165.5 352H32C14.33 352 0 366.33 0 384V480C0 497.67 14.33 512 32 512H480C497.67 512 512 497.67 512 480V384C512 366.3 497.7 352 480 352ZM432 456C418.8 456 408 445.2 408 432C408 418.8 418.8 408 432 408C445.2 408 456 418.8 456 432C456 445.2 445.2 456 432 456ZM233.4 374.6C239.6 380.9 247.8 384 256 384C264.2 384 272.38 380.875 278.62 374.625L406.62 246.625C419.11 234.125 419.11 213.875 406.62 201.375C394.12 188.875 373.86 188.875 361.37 201.375L288 274.8V32C288 14.33 273.67 0 256 0C238.3 0 224 14.33 224 32V274.8L150.6 201.4C138.11 188.9 117.85 188.9 105.35 201.4C92.86 213.9 92.86 234.15 105.35 246.65L233.4 374.6Z" fill="#F8F8F8"/>
</svg>
