<svg width="21" height="21" viewBox="0 0 21 21" fill="none" xmlns="http://www.w3.org/2000/svg">
<path fill-rule="evenodd" clip-rule="evenodd" d="M1.89767 0.900085H0.897675V1.90009V19.9019V20.9019H1.89767H19.908H20.908V19.9019V1.90009V0.900085H19.908H1.89767ZM1.89767 19.9019H2.89767H18.908H19.908V18.9019V2.90009V1.90009H18.908H2.89767H1.89767V2.90009V18.9019V19.9019ZM10.5122 9.85924C10.6392 10.0222 10.7027 10.2362 10.7027 10.45C10.7027 10.6642 10.6397 10.8784 10.5121 11.041L6.60983 16.0558C6.48301 16.219 6.31651 16.3006 6.1501 16.3006C5.80357 16.3006 5.49973 15.9423 5.49973 15.4648C5.49973 15.2507 5.56324 15.0365 5.69077 14.8745L9.13368 10.45L5.69026 6.02606C5.56324 5.86308 5.49973 5.64911 5.49973 5.43525C5.49973 4.95807 5.80357 4.59946 6.1501 4.59946C6.31655 4.59946 6.48301 4.68121 6.60993 4.84445L10.5122 9.85924ZM10.7027 14.629H16.556C16.9158 14.629 17.2064 15.0028 17.2064 15.4648C17.2064 15.9269 16.9152 16.3006 16.556 16.3006H10.7027C10.3436 16.3006 10.0523 15.9269 10.0523 15.4648C10.0523 15.0028 10.3436 14.629 10.7027 14.629Z" fill="#F1F1F1"/>
</svg>
