<svg width="30" height="30" viewBox="0 0 30 30" fill="none" xmlns="http://www.w3.org/2000/svg">
<path d="M18.5 12C18.794 12 19.025 12.246 18.997 12.54L17.997 24.524C17.943 25.217 16.942 25.134 17.003 24.442L18.003 12.458C18.019 12.196 18.237 12 18.499 12H18.5ZM11.5 12C11.206 12 10.975 12.246 11.003 12.54L12.003 24.524C12.057 25.217 13.058 25.134 12.997 24.442L11.997 12.458C11.981 12.196 11.763 12 11.501 12H11.5ZM12.5 0C11.678 0 11 0.678 11 1.5V4H5.5C5.223 4 5 4.223 5 4.5C5 4.777 5.223 5 5.5 5H24.5C24.777 5 25 4.777 25 4.5C25 4.223 24.777 4 24.5 4H19V1.5C19 0.678 18.322 0 17.5 0H12.5ZM12.5 1H17.5C17.786 1 18 1.214 18 1.5V4H12V1.5C12 1.214 12.214 1 12.5 1ZM6.5 6C5.676 6 4.92 6.673 5.002 7.547L7.002 28.547C7.074 29.307 7.676 30 8.5 30H21.5C22.324 30 22.926 29.308 22.998 28.547L24.998 7.547C25.08 6.673 24.324 6 23.5 6H6.5ZM6.5 7H23.5C23.784 7 24.024 7.224 24.002 7.453L22.002 28.453C21.969 28.795 21.784 29 21.5 29H8.5C8.216 29 8.03 28.795 7.998 28.453L5.998 7.453C5.976 7.223 6.216 7 6.5 7Z" fill="white"/>
</svg>
